# xmcd
#
# Track frame offsets:
# 150
# 28065
# 50185
# 72377
# 90005
# 107335
# 126642
# 147247
# 170959
# 190015
# 207272
# 225135
# 244857
# 274365
# 296055
# 324947
#
# Disc length: 4559 seconds
#
#
# Revision: 12
# Processed by: cddbd v1.5.2PL0 Copyright (c) Steve Scherf et al.
# Submitted via: FreeRIP 2.944 
#
DISCID=ee11cd10
DTITLE=Scorpions - Special Edition Gold CD1
DYEAR=2002
DGENRE=Rock
TTITLE0=Still Loving You
TTITLE1=Under The Same Sun
TTITLE2=Always Somewhere
TTITLE3=No One Like You
TTITLE4=Blackout
TTITLE5=Is There Anybody There
TTITLE6=Send Me An Angel
TTITLE7=Wind of Change
TTITLE8=Rock You Like A Hurricane
TTITLE9=Rhythm of Love
TTITLE10=Big City Nights
TTITLE11=White Dove
TTITLE12=Holiday
TTITLE13=Believe In Love
TTITLE14=Lady Starlight
TTITLE15=When The Smoke Is Going Down
EXTD=
EXTT0=
EXTT1=
EXTT2=
EXTT3=
EXTT4=
EXTT5=
EXTT6=
EXTT7=
EXTT8=
EXTT9=
EXTT10=
EXTT11=
EXTT12=
EXTT13=
EXTT14=
EXTT15=
PLAYORDER=
